# xmcd CD database file
#
# Track frame offsets:
#	150
#	20497
#	43959
#
# Disc length: 792 seconds
#
# Revision: 0
# Processed by: cddbd v1.5PL3 Copyright (c) Steve Scherf et al.
# Submitted via: CDex 1.51
#
DISCID=21031603
DTITLE=用心棒 - DARUMA
DYEAR=2003
DGENRE=Rock
TTITLE0=達磨
TTITLE1=Oh My Love
TTITLE2=合コン DE ブルース
EXTD=YEAR: 20031228
EXTT0=
EXTT1=
EXTT2=
PLAYORDER=
